Coordinates
version=1
nRows=9
nColumns=24
inDegrees=yes

Units are S.I. units (second, meters, Newtons, ...)
Angles are in degrees.

endheader
time	pelvis_tilt	pelvis_list	pelvis_rotation	pelvis_tx	pelvis_ty	pelvis_tz	hip_flexion_r	hip_adduction_r	hip_rotation_r	knee_angle_r	ankle_angle_r	subtalar_angle_r	mtp_angle_r	hip_flexion_l	hip_adduction_l	hip_rotation_l	knee_angle_l	ankle_angle_l	subtalar_angle_l	mtp_angle_l	lumbar_extension	lumbar_bending	lumbar_rotation
      0.91916667	     -5.08763719	      3.02645903	     -0.62953092	     -0.20144730	      1.03658158	      0.28136631	     -4.23106207	     -1.85681277	     -2.38772466	    -19.92731678	     25.88941162	      1.90079034	     -1.13918171	     32.54966892	      1.32788718	     -1.15684706	    -12.08339147	      9.37378373	      6.85944496	      0.56381515	     -7.38469305	     -1.44271688	      2.45514043
      0.92333333	     -5.06677286	      3.03325148	     -0.75523061	     -0.19489006	      1.03530336	      0.28116295	     -4.43688448	     -1.94677264	     -2.44237632	    -20.36652231	     25.96989421	      2.19391699	     -1.09036373	     32.52206131	      1.32742300	     -1.13808457	    -12.02542876	      9.33036728	      6.83070228	      0.53978320	     -7.36750320	     -1.51235755	      2.47782782
      0.92750000	     -5.04400573	      3.04069591	     -0.87946935	     -0.18831232	      1.03407704	      0.28094228	     -4.62926594	     -2.04189275	     -2.48679848	    -20.83703306	     26.03081537	      2.49629320	     -1.01500194	     32.49268697	      1.33420673	     -1.11353784	    -12.05413060	      9.26041471	      6.79610254	      0.51703780	     -7.33951470	     -1.58755040	      2.50279951
      0.93166667	     -5.00693164	      3.05694290	     -1.00643807	     -0.18170981	      1.03292813	      0.28073439	     -4.81551110	     -2.15041925	     -2.52652669	    -21.35203820	     26.04658005	      2.79598747	     -0.90974749	     32.44739630	      1.35156906	     -1.09357041	    -12.17007956	      9.16465687	      6.75749667	      0.49854680	     -7.32708214	     -1.67998478	      2.52335986
      0.93583333	     -4.95902887	      3.07973389	     -1.13284064	     -0.17510456	      1.03184543	      0.28051457	     -4.98683181	     -2.27275875	     -2.56962244	    -21.92208552	     26.02827840	      3.10888887	     -0.76164240	     32.39516148	      1.38105432	     -1.06082134	    -12.37544769	      9.04868825	      6.72586934	      0.48537376	     -7.33025537	     -1.78595137	      2.54100550
      0.94000000	     -4.93019182	      3.11012204	     -1.26788189	     -0.16846546	      1.03080171	      0.28030473	     -5.11101914	     -2.40851820	     -2.59597336	    -22.54094166	     25.95033491	      3.41507529	     -0.58850057	     32.36804569	      1.41502499	     -1.05377596	    -12.67204118	      8.89120795	      6.66732166	      0.47938411	     -7.29697904	     -1.90133122	      2.55373513
      0.94416667	     -4.87562931	      3.14380609	     -1.39007931	     -0.16184466	      1.02984679	      0.28004957	     -5.22767873	     -2.55914680	     -2.66567681	    -23.23213854	     25.85141337	      3.75582604	     -0.31639638	     32.32242718	      1.46579381	     -1.01818229	    -13.05386320	      8.71902621	      6.59969180	      0.48298715	     -7.30144654	     -2.01603841	      2.57450449
      0.94833333	     -4.82716284	      3.17778305	     -1.51711983	     -0.15520749	      1.02895911	      0.27981390	     -5.31328192	     -2.70987530	     -2.69545510	    -23.96539732	     25.66349227	      4.07121873	     -0.01133562	     32.29045852	      1.51481881	     -0.99358234	    -13.51660564	      8.51392151	      6.52025378	      0.49503425	     -7.29158655	     -2.14736946	      2.57584430
      0.95250000	     -4.75953502	      3.21683349	     -1.63699842	     -0.14859161	      1.02816883	      0.27954043	     -5.38555906	     -2.87279549	     -2.72946800	    -24.75126279	     25.32352609	      4.23237549	      4.56140995	     32.23797652	      1.58534219	     -0.89629673	    -14.03589702	      8.27559241	      6.28697824	      0.80749960	     -7.30331138	     -2.27455762	      2.55899121
